<?xml version="1.0" encoding="UTF-8"?>
<!DOCTYPE svg PUBLIC "-//W3C//DTD SVG 1.1//EN" "http://www.w3.org/Graphics/SVG/1.1/DTD/svg11.dtd">
<svg xmlns="http://www.w3.org/2000/svg" version="1.1" width="332px" height="332px" style="shape-rendering:geometricPrecision; text-rendering:geometricPrecision; image-rendering:optimizeQuality; fill-rule:evenodd; clip-rule:evenodd" xmlns:xlink="http://www.w3.org/1999/xlink">
<g><path style="opacity:0.988" fill="#006caa" d="M 147.5,-0.5 C 159.5,-0.5 171.5,-0.5 183.5,-0.5C 241.119,7.62753 284.286,36.9609 313,87.5C 322.535,106.596 328.702,126.596 331.5,147.5C 331.5,159.5 331.5,171.5 331.5,183.5C 323.372,241.119 294.039,284.286 243.5,313C 224.404,322.535 204.404,328.702 183.5,331.5C 171.5,331.5 159.5,331.5 147.5,331.5C 90.6701,323.674 47.8368,295.007 19,245.5C 8.93716,225.818 2.43716,205.152 -0.5,183.5C -0.5,171.5 -0.5,159.5 -0.5,147.5C 7.62753,89.8808 36.9609,46.7141 87.5,18C 106.596,8.46492 126.596,2.29826 147.5,-0.5 Z M 79.5,86.5 C 95.1702,86.3334 110.837,86.5001 126.5,87C 127.643,93.4184 127.81,99.9184 127,106.5C 111.241,107.657 95.4076,107.824 79.5,107C 77.9527,103.902 77.2861,100.569 77.5,97C 77.3076,93.2709 77.9743,89.7709 79.5,86.5 Z M 79.5,111.5 C 95.1702,111.333 110.837,111.5 126.5,112C 127.324,125.425 127.824,138.925 128,152.5C 141.026,142.64 154.193,132.974 167.5,123.5C 168.478,123.977 169.311,124.643 170,125.5C 170.161,134.541 170.328,143.541 170.5,152.5C 183.306,143.527 195.973,134.36 208.5,125C 210.212,123.249 212.212,122.582 214.5,123C 215.32,132.756 215.82,142.59 216,152.5C 228.435,143.698 240.602,134.531 252.5,125C 254.212,123.249 256.212,122.582 258.5,123C 259.496,159.761 259.83,196.594 259.5,233.5C 262.681,233.002 265.347,233.835 267.5,236C 266.833,236.667 266.167,237.333 265.5,238C 200.833,238.667 136.167,238.667 71.5,238C 70.1667,236.667 70.1667,235.333 71.5,234C 73.4727,233.505 75.4727,233.338 77.5,233.5C 77.3333,193.832 77.5,154.165 78,114.5C 78.5133,113.473 79.0133,112.473 79.5,111.5 Z"/></g>
<g><path style="opacity:0.982" fill="#006ea9" d="M 83.5,92.5 C 96.1667,92.5 108.833,92.5 121.5,92.5C 121.5,95.8333 121.5,99.1667 121.5,102.5C 108.833,102.5 96.1667,102.5 83.5,102.5C 83.5,99.1667 83.5,95.8333 83.5,92.5 Z"/></g>
<g><path style="opacity:0.977" fill="#006da9" d="M 83.5,117.5 C 96.1667,117.5 108.833,117.5 121.5,117.5C 121.5,155.833 121.5,194.167 121.5,232.5C 108.833,232.5 96.1667,232.5 83.5,232.5C 83.5,194.167 83.5,155.833 83.5,117.5 Z"/></g>
<g><path style="opacity:1" fill="#026da9" d="M 208.5,131.5 C 210.152,140.798 211.152,150.465 211.5,160.5C 212.086,160.709 212.586,161.043 213,161.5C 226.359,151.307 239.859,141.307 253.5,131.5C 254.5,165.16 254.833,198.827 254.5,232.5C 212.167,232.5 169.833,232.5 127.5,232.5C 127.333,208.164 127.5,183.831 128,159.5C 139.821,150.257 151.821,141.257 164,132.5C 164.168,141.851 164.668,151.184 165.5,160.5C 166.086,160.709 166.586,161.043 167,161.5C 181.015,151.637 194.848,141.637 208.5,131.5 Z"/></g>
<g><path style="opacity:1" fill="#f4f6f8" d="M 187.5,183.5 C 195.62,181.972 201.12,184.972 204,192.5C 204.667,198.5 204.667,204.5 204,210.5C 200.23,220.891 193.564,223.225 184,217.5C 179.333,207.167 179.333,196.833 184,186.5C 185.518,185.837 186.685,184.837 187.5,183.5 Z"/></g>
<g><path style="opacity:1" fill="#f3f5f8" d="M 144.5,184.5 C 150.176,184.334 155.843,184.501 161.5,185C 172.418,188.616 176.585,196.116 174,207.5C 172.167,213.333 168.333,217.167 162.5,219C 156.509,219.499 150.509,219.666 144.5,219.5C 144.5,207.833 144.5,196.167 144.5,184.5 Z"/></g>
<g><path style="opacity:1" fill="#f7f8fa" d="M 222.5,184.5 C 223.833,184.5 225.167,184.5 226.5,184.5C 226.5,194.833 226.5,205.167 226.5,215.5C 228.833,215.5 231.167,215.5 233.5,215.5C 233.5,216.833 233.5,218.167 233.5,219.5C 227.167,219.5 220.833,219.5 214.5,219.5C 214.5,218.167 214.5,216.833 214.5,215.5C 216.833,215.5 219.167,215.5 221.5,215.5C 221.5,208.167 221.5,200.833 221.5,193.5C 219.167,193.5 216.833,193.5 214.5,193.5C 214.5,192.167 214.5,190.833 214.5,189.5C 218.537,189.824 221.203,188.158 222.5,184.5 Z"/></g>
<g><path style="opacity:1" fill="#126eaa" d="M 149.5,188.5 C 165.025,186.851 171.192,193.518 168,208.5C 167.215,210.286 166.049,211.786 164.5,213C 159.692,214.893 154.692,215.727 149.5,215.5C 149.5,206.5 149.5,197.5 149.5,188.5 Z"/></g>
<g><path style="opacity:1" fill="#126eaa" d="M 189.5,187.5 C 194.997,186.82 198.164,189.154 199,194.5C 199.818,200.902 199.484,207.235 198,213.5C 191.864,218.409 187.864,217.076 186,209.5C 185.333,203.833 185.333,198.167 186,192.5C 186.997,190.677 188.164,189.01 189.5,187.5 Z"/></g>
</svg>
