<?xml version="1.0" encoding="UTF-8"?>
<!DOCTYPE svg PUBLIC "-//W3C//DTD SVG 1.1//EN" "http://www.w3.org/Graphics/SVG/1.1/DTD/svg11.dtd">
<svg xmlns="http://www.w3.org/2000/svg" version="1.1" width="332px" height="332px" style="shape-rendering:geometricPrecision; text-rendering:geometricPrecision; image-rendering:optimizeQuality; fill-rule:evenodd; clip-rule:evenodd" xmlns:xlink="http://www.w3.org/1999/xlink">
<g><path style="opacity:0.988" fill="#006caa" d="M 147.5,-0.5 C 159.5,-0.5 171.5,-0.5 183.5,-0.5C 241.119,7.62753 284.286,36.9609 313,87.5C 322.535,106.596 328.702,126.596 331.5,147.5C 331.5,159.5 331.5,171.5 331.5,183.5C 323.372,241.119 294.039,284.286 243.5,313C 224.404,322.535 204.404,328.702 183.5,331.5C 171.5,331.5 159.5,331.5 147.5,331.5C 90.6701,323.674 47.8368,295.007 19,245.5C 8.93716,225.818 2.43716,205.152 -0.5,183.5C -0.5,171.5 -0.5,159.5 -0.5,147.5C 7.62753,89.8808 36.9609,46.7141 87.5,18C 106.596,8.46492 126.596,2.29826 147.5,-0.5 Z M 79.5,86.5 C 95.1702,86.3334 110.837,86.5001 126.5,87C 127.643,93.4184 127.81,99.9184 127,106.5C 111.241,107.657 95.4076,107.824 79.5,107C 77.9527,103.902 77.2861,100.569 77.5,97C 77.3076,93.2709 77.9743,89.7709 79.5,86.5 Z M 79.5,111.5 C 95.1702,111.333 110.837,111.5 126.5,112C 127.324,125.425 127.824,138.925 128,152.5C 141.026,142.64 154.193,132.974 167.5,123.5C 168.478,123.977 169.311,124.643 170,125.5C 170.161,134.541 170.328,143.541 170.5,152.5C 183.306,143.527 195.973,134.36 208.5,125C 210.212,123.249 212.212,122.582 214.5,123C 215.32,132.756 215.82,142.59 216,152.5C 228.435,143.698 240.602,134.531 252.5,125C 254.212,123.249 256.212,122.582 258.5,123C 259.496,159.761 259.83,196.594 259.5,233.5C 262.681,233.002 265.347,233.835 267.5,236C 266.833,236.667 266.167,237.333 265.5,238C 200.833,238.667 136.167,238.667 71.5,238C 70.1667,236.667 70.1667,235.333 71.5,234C 73.4727,233.505 75.4727,233.338 77.5,233.5C 77.3333,193.832 77.5,154.165 78,114.5C 78.5133,113.473 79.0133,112.473 79.5,111.5 Z"/></g>
<g><path style="opacity:0.982" fill="#006ea9" d="M 83.5,92.5 C 96.1667,92.5 108.833,92.5 121.5,92.5C 121.5,95.8333 121.5,99.1667 121.5,102.5C 108.833,102.5 96.1667,102.5 83.5,102.5C 83.5,99.1667 83.5,95.8333 83.5,92.5 Z"/></g>
<g><path style="opacity:0.977" fill="#006da9" d="M 83.5,117.5 C 96.1667,117.5 108.833,117.5 121.5,117.5C 121.5,155.833 121.5,194.167 121.5,232.5C 108.833,232.5 96.1667,232.5 83.5,232.5C 83.5,194.167 83.5,155.833 83.5,117.5 Z"/></g>
<g><path style="opacity:1" fill="#026da9" d="M 208.5,131.5 C 210.152,140.798 211.152,150.465 211.5,160.5C 212.086,160.709 212.586,161.043 213,161.5C 226.359,151.307 239.859,141.307 253.5,131.5C 254.5,165.16 254.833,198.827 254.5,232.5C 212.167,232.5 169.833,232.5 127.5,232.5C 127.333,208.164 127.5,183.831 128,159.5C 139.821,150.257 151.821,141.257 164,132.5C 164.168,141.851 164.668,151.184 165.5,160.5C 166.086,160.709 166.586,161.043 167,161.5C 181.015,151.637 194.848,141.637 208.5,131.5 Z"/></g>
<g><path style="opacity:1" fill="#f2f4f8" d="M 182.5,183.5 C 192.073,181.907 197.573,185.907 199,195.5C 200.231,202.85 199.231,209.85 196,216.5C 185.268,223.853 178.268,221.187 175,208.5C 174.211,202.763 174.544,197.097 176,191.5C 177.305,188.039 179.471,185.372 182.5,183.5 Z"/></g>
<g><path style="opacity:1" fill="#f9fafc" d="M 148.5,184.5 C 155.833,184.5 163.167,184.5 170.5,184.5C 170.5,185.833 170.5,187.167 170.5,188.5C 164.833,188.5 159.167,188.5 153.5,188.5C 153.5,191.833 153.5,195.167 153.5,198.5C 158.5,198.5 163.5,198.5 168.5,198.5C 168.5,199.833 168.5,201.167 168.5,202.5C 163.5,202.5 158.5,202.5 153.5,202.5C 153.5,208.167 153.5,213.833 153.5,219.5C 151.833,219.5 150.167,219.5 148.5,219.5C 148.5,207.833 148.5,196.167 148.5,184.5 Z"/></g>
<g><path style="opacity:1" fill="#f6f8fa" d="M 217.5,184.5 C 218.833,184.5 220.167,184.5 221.5,184.5C 221.5,194.833 221.5,205.167 221.5,215.5C 223.833,215.5 226.167,215.5 228.5,215.5C 228.5,216.833 228.5,218.167 228.5,219.5C 222.167,219.5 215.833,219.5 209.5,219.5C 209.5,218.167 209.5,216.833 209.5,215.5C 211.833,215.5 214.167,215.5 216.5,215.5C 216.5,208.167 216.5,200.833 216.5,193.5C 214.167,193.5 211.833,193.5 209.5,193.5C 209.5,192.167 209.5,190.833 209.5,189.5C 213.537,189.824 216.203,188.158 217.5,184.5 Z"/></g>
<g><path style="opacity:1" fill="#2472ac" d="M 184.5,187.5 C 190.534,186.767 193.701,189.433 194,195.5C 195.011,202.024 194.345,208.357 192,214.5C 184.999,217.887 180.999,215.554 180,207.5C 179.333,203.167 179.333,198.833 180,194.5C 180.938,191.743 182.438,189.41 184.5,187.5 Z"/></g>
</svg>
