<?xml version="1.0" encoding="UTF-8"?>
<!DOCTYPE svg PUBLIC "-//W3C//DTD SVG 1.1//EN" "http://www.w3.org/Graphics/SVG/1.1/DTD/svg11.dtd">
<svg xmlns="http://www.w3.org/2000/svg" version="1.1" width="332px" height="332px" style="shape-rendering:geometricPrecision; text-rendering:geometricPrecision; image-rendering:optimizeQuality; fill-rule:evenodd; clip-rule:evenodd" xmlns:xlink="http://www.w3.org/1999/xlink">
<g><path style="opacity:0.988" fill="#006caa" d="M 147.5,-0.5 C 159.5,-0.5 171.5,-0.5 183.5,-0.5C 241.119,7.62753 284.286,36.9609 313,87.5C 322.535,106.596 328.702,126.596 331.5,147.5C 331.5,159.5 331.5,171.5 331.5,183.5C 323.372,241.119 294.039,284.286 243.5,313C 224.404,322.535 204.404,328.702 183.5,331.5C 171.5,331.5 159.5,331.5 147.5,331.5C 90.6701,323.674 47.8368,295.007 19,245.5C 8.93716,225.818 2.43716,205.152 -0.5,183.5C -0.5,171.5 -0.5,159.5 -0.5,147.5C 7.62753,89.8808 36.9609,46.7141 87.5,18C 106.596,8.46492 126.596,2.29826 147.5,-0.5 Z M 79.5,86.5 C 95.1702,86.3334 110.837,86.5001 126.5,87C 127.643,93.4184 127.81,99.9184 127,106.5C 111.241,107.657 95.4076,107.824 79.5,107C 77.9527,103.902 77.2861,100.569 77.5,97C 77.3076,93.2709 77.9743,89.7709 79.5,86.5 Z M 79.5,111.5 C 95.1702,111.333 110.837,111.5 126.5,112C 127.324,125.425 127.824,138.925 128,152.5C 141.026,142.64 154.193,132.974 167.5,123.5C 168.478,123.977 169.311,124.643 170,125.5C 170.161,134.541 170.328,143.541 170.5,152.5C 183.306,143.527 195.973,134.36 208.5,125C 210.212,123.249 212.212,122.582 214.5,123C 215.32,132.756 215.82,142.59 216,152.5C 228.435,143.698 240.602,134.531 252.5,125C 254.212,123.249 256.212,122.582 258.5,123C 259.496,159.761 259.83,196.594 259.5,233.5C 262.681,233.002 265.347,233.835 267.5,236C 266.833,236.667 266.167,237.333 265.5,238C 200.833,238.667 136.167,238.667 71.5,238C 70.1667,236.667 70.1667,235.333 71.5,234C 73.4727,233.505 75.4727,233.338 77.5,233.5C 77.3333,193.832 77.5,154.165 78,114.5C 78.5133,113.473 79.0133,112.473 79.5,111.5 Z"/></g>
<g><path style="opacity:0.982" fill="#006ea9" d="M 83.5,92.5 C 96.1667,92.5 108.833,92.5 121.5,92.5C 121.5,95.8333 121.5,99.1667 121.5,102.5C 108.833,102.5 96.1667,102.5 83.5,102.5C 83.5,99.1667 83.5,95.8333 83.5,92.5 Z"/></g>
<g><path style="opacity:0.977" fill="#006da9" d="M 83.5,117.5 C 96.1667,117.5 108.833,117.5 121.5,117.5C 121.5,155.833 121.5,194.167 121.5,232.5C 108.833,232.5 96.1667,232.5 83.5,232.5C 83.5,194.167 83.5,155.833 83.5,117.5 Z"/></g>
<g><path style="opacity:1" fill="#036da9" d="M 208.5,131.5 C 210.152,140.798 211.152,150.465 211.5,160.5C 212.086,160.709 212.586,161.043 213,161.5C 226.359,151.307 239.859,141.307 253.5,131.5C 254.5,165.16 254.833,198.827 254.5,232.5C 212.167,232.5 169.833,232.5 127.5,232.5C 127.333,208.164 127.5,183.831 128,159.5C 139.821,150.257 151.821,141.257 164,132.5C 164.168,141.851 164.668,151.184 165.5,160.5C 166.086,160.709 166.586,161.043 167,161.5C 181.015,151.637 194.848,141.637 208.5,131.5 Z"/></g>
<g><path style="opacity:1" fill="#f4f6f8" d="M 183.5,183.5 C 191.62,181.972 197.12,184.972 200,192.5C 200.667,198.5 200.667,204.5 200,210.5C 196.23,220.891 189.564,223.225 180,217.5C 175.333,207.167 175.333,196.833 180,186.5C 181.518,185.837 182.685,184.837 183.5,183.5 Z"/></g>
<g><path style="opacity:1" fill="#f4f6f8" d="M 218.5,183.5 C 221.833,183.5 225.167,183.5 228.5,183.5C 228.66,185.199 228.494,186.866 228,188.5C 218.678,186.324 213.678,189.991 213,199.5C 216.933,197.522 221.1,197.022 225.5,198C 234.494,204.469 234.827,211.469 226.5,219C 213.797,222.31 207.463,217.31 207.5,204C 206.888,194.717 210.554,187.884 218.5,183.5 Z"/></g>
<g><path style="opacity:1" fill="#f5f6f9" d="M 148.5,184.5 C 153.844,184.334 159.177,184.501 164.5,185C 171.053,187.73 173.22,192.563 171,199.5C 166.99,205.976 161.157,208.309 153.5,206.5C 153.5,210.833 153.5,215.167 153.5,219.5C 151.833,219.5 150.167,219.5 148.5,219.5C 148.5,207.833 148.5,196.167 148.5,184.5 Z"/></g>
<g><path style="opacity:1" fill="#1b70ab" d="M 153.5,188.5 C 157.247,188.392 160.914,188.892 164.5,190C 167.128,193.465 167.128,196.965 164.5,200.5C 161.05,202.224 157.383,202.891 153.5,202.5C 153.5,197.833 153.5,193.167 153.5,188.5 Z"/></g>
<g><path style="opacity:1" fill="#126eaa" d="M 185.5,187.5 C 190.997,186.82 194.164,189.154 195,194.5C 195.818,200.902 195.484,207.235 194,213.5C 187.864,218.409 183.864,217.076 182,209.5C 181.333,203.833 181.333,198.167 182,192.5C 182.997,190.677 184.164,189.01 185.5,187.5 Z"/></g>
<g><path style="opacity:1" fill="#1c70ab" d="M 215.5,201.5 C 226.607,201.062 229.607,205.562 224.5,215C 216.935,217.876 212.935,215.21 212.5,207C 212.12,204.297 213.12,202.463 215.5,201.5 Z"/></g>
</svg>
