<?xml version="1.0" encoding="UTF-8"?>
<!DOCTYPE svg PUBLIC "-//W3C//DTD SVG 1.1//EN" "http://www.w3.org/Graphics/SVG/1.1/DTD/svg11.dtd">
<svg xmlns="http://www.w3.org/2000/svg" version="1.1" width="332px" height="332px" style="shape-rendering:geometricPrecision; text-rendering:geometricPrecision; image-rendering:optimizeQuality; fill-rule:evenodd; clip-rule:evenodd" xmlns:xlink="http://www.w3.org/1999/xlink">
<g><path style="opacity:0.988" fill="#006caa" d="M 147.5,-0.5 C 159.5,-0.5 171.5,-0.5 183.5,-0.5C 241.119,7.62753 284.286,36.9609 313,87.5C 322.535,106.596 328.702,126.596 331.5,147.5C 331.5,159.5 331.5,171.5 331.5,183.5C 323.372,241.119 294.039,284.286 243.5,313C 224.404,322.535 204.404,328.702 183.5,331.5C 171.5,331.5 159.5,331.5 147.5,331.5C 90.6701,323.674 47.8368,295.007 19,245.5C 8.93716,225.818 2.43716,205.152 -0.5,183.5C -0.5,171.5 -0.5,159.5 -0.5,147.5C 7.62753,89.8808 36.9609,46.7141 87.5,18C 106.596,8.46492 126.596,2.29826 147.5,-0.5 Z M 79.5,86.5 C 95.1702,86.3334 110.837,86.5001 126.5,87C 127.643,93.4184 127.81,99.9184 127,106.5C 111.241,107.657 95.4076,107.824 79.5,107C 77.9527,103.902 77.2861,100.569 77.5,97C 77.3076,93.2709 77.9743,89.7709 79.5,86.5 Z M 79.5,111.5 C 95.1702,111.333 110.837,111.5 126.5,112C 127.324,125.425 127.824,138.925 128,152.5C 141.026,142.64 154.193,132.974 167.5,123.5C 168.478,123.977 169.311,124.643 170,125.5C 170.161,134.541 170.328,143.541 170.5,152.5C 183.306,143.527 195.973,134.36 208.5,125C 210.212,123.249 212.212,122.582 214.5,123C 215.32,132.756 215.82,142.59 216,152.5C 228.435,143.698 240.602,134.531 252.5,125C 254.212,123.249 256.212,122.582 258.5,123C 259.496,159.761 259.83,196.594 259.5,233.5C 262.681,233.002 265.347,233.835 267.5,236C 266.833,236.667 266.167,237.333 265.5,238C 200.833,238.667 136.167,238.667 71.5,238C 70.1667,236.667 70.1667,235.333 71.5,234C 73.4727,233.505 75.4727,233.338 77.5,233.5C 77.3333,193.832 77.5,154.165 78,114.5C 78.5133,113.473 79.0133,112.473 79.5,111.5 Z"/></g>
<g><path style="opacity:0.982" fill="#006ea9" d="M 83.5,92.5 C 96.1667,92.5 108.833,92.5 121.5,92.5C 121.5,95.8333 121.5,99.1667 121.5,102.5C 108.833,102.5 96.1667,102.5 83.5,102.5C 83.5,99.1667 83.5,95.8333 83.5,92.5 Z"/></g>
<g><path style="opacity:0.977" fill="#006da9" d="M 83.5,117.5 C 96.1667,117.5 108.833,117.5 121.5,117.5C 121.5,155.833 121.5,194.167 121.5,232.5C 108.833,232.5 96.1667,232.5 83.5,232.5C 83.5,194.167 83.5,155.833 83.5,117.5 Z"/></g>
<g><path style="opacity:1" fill="#046da9" d="M 208.5,131.5 C 210.152,140.798 211.152,150.465 211.5,160.5C 212.086,160.709 212.586,161.043 213,161.5C 226.359,151.307 239.859,141.307 253.5,131.5C 254.5,165.16 254.833,198.827 254.5,232.5C 212.167,232.5 169.833,232.5 127.5,232.5C 127.333,208.164 127.5,183.831 128,159.5C 139.821,150.257 151.821,141.257 164,132.5C 164.168,141.851 164.668,151.184 165.5,160.5C 166.086,160.709 166.586,161.043 167,161.5C 181.015,151.637 194.848,141.637 208.5,131.5 Z"/></g>
<g><path style="opacity:1" fill="#f3f5f8" d="M 152.5,183.5 C 160.966,181.657 167.466,184.323 172,191.5C 174.456,199.785 173.789,207.785 170,215.5C 167.842,216.826 166.008,218.493 164.5,220.5C 165.04,221.748 165.707,222.915 166.5,224C 169.192,224.43 171.859,224.263 174.5,223.5C 174.5,225.167 174.5,226.833 174.5,228.5C 168.48,229.78 163.647,228.113 160,223.5C 159.517,222.552 159.351,221.552 159.5,220.5C 150.471,221.074 144.637,217.074 142,208.5C 139.25,197.185 142.75,188.852 152.5,183.5 Z"/></g>
<g><path style="opacity:1" fill="#f2f4f8" d="M 187.5,183.5 C 197.073,181.907 202.573,185.907 204,195.5C 205.231,202.85 204.231,209.85 201,216.5C 190.268,223.853 183.268,221.187 180,208.5C 179.211,202.763 179.544,197.097 181,191.5C 182.305,188.039 184.471,185.372 187.5,183.5 Z"/></g>
<g><path style="opacity:1" fill="#f2f4f7" d="M 222.5,183.5 C 225.833,183.5 229.167,183.5 232.5,183.5C 232.5,185.167 232.5,186.833 232.5,188.5C 223.293,185.766 217.96,189.099 216.5,198.5C 222.134,196.697 227.467,197.197 232.5,200C 233.701,200.903 234.535,202.069 235,203.5C 237.578,213.911 233.578,219.578 223,220.5C 217.589,220.289 213.922,217.623 212,212.5C 208.049,199.894 211.549,190.228 222.5,183.5 Z"/></g>
<g><path style="opacity:1" fill="#0d6eaa" d="M 154.5,187.5 C 160.957,186.975 165.457,189.642 168,195.5C 169.037,201.394 168.371,207.061 166,212.5C 160.896,217.192 155.562,217.525 150,213.5C 146.258,207.151 145.591,200.484 148,193.5C 149.494,190.686 151.66,188.686 154.5,187.5 Z"/></g>
<g><path style="opacity:1" fill="#2472ac" d="M 189.5,187.5 C 195.534,186.767 198.701,189.433 199,195.5C 200.011,202.024 199.345,208.357 197,214.5C 189.999,217.887 185.999,215.554 185,207.5C 184.333,203.167 184.333,198.833 185,194.5C 185.938,191.743 187.438,189.41 189.5,187.5 Z"/></g>
<g><path style="opacity:1" fill="#1d70ab" d="M 220.5,201.5 C 230.175,201.672 232.842,206.172 228.5,215C 220.526,217.732 216.193,214.732 215.5,206C 215.833,205.167 216.167,204.333 216.5,203.5C 218.026,203.006 219.359,202.339 220.5,201.5 Z"/></g>
</svg>
