<?xml version="1.0" encoding="UTF-8"?>
<!DOCTYPE svg PUBLIC "-//W3C//DTD SVG 1.1//EN" "http://www.w3.org/Graphics/SVG/1.1/DTD/svg11.dtd">
<svg xmlns="http://www.w3.org/2000/svg" version="1.1" width="332px" height="332px" style="shape-rendering:geometricPrecision; text-rendering:geometricPrecision; image-rendering:optimizeQuality; fill-rule:evenodd; clip-rule:evenodd" xmlns:xlink="http://www.w3.org/1999/xlink">
<g><path style="opacity:0.988" fill="#006caa" d="M 147.5,-0.5 C 159.5,-0.5 171.5,-0.5 183.5,-0.5C 241.119,7.62753 284.286,36.9609 313,87.5C 322.535,106.596 328.702,126.596 331.5,147.5C 331.5,159.5 331.5,171.5 331.5,183.5C 323.372,241.119 294.039,284.286 243.5,313C 224.404,322.535 204.404,328.702 183.5,331.5C 171.5,331.5 159.5,331.5 147.5,331.5C 90.6701,323.674 47.8368,295.007 19,245.5C 8.93716,225.818 2.43716,205.152 -0.5,183.5C -0.5,171.5 -0.5,159.5 -0.5,147.5C 7.62753,89.8808 36.9609,46.7141 87.5,18C 106.596,8.46492 126.596,2.29826 147.5,-0.5 Z M 79.5,86.5 C 95.1702,86.3334 110.837,86.5001 126.5,87C 127.643,93.4184 127.81,99.9184 127,106.5C 111.241,107.657 95.4076,107.824 79.5,107C 77.9527,103.902 77.2861,100.569 77.5,97C 77.3076,93.2709 77.9743,89.7709 79.5,86.5 Z M 79.5,111.5 C 95.1702,111.333 110.837,111.5 126.5,112C 127.324,125.425 127.824,138.925 128,152.5C 141.026,142.64 154.193,132.974 167.5,123.5C 168.478,123.977 169.311,124.643 170,125.5C 170.161,134.541 170.328,143.541 170.5,152.5C 183.306,143.527 195.973,134.36 208.5,125C 210.212,123.249 212.212,122.582 214.5,123C 215.32,132.756 215.82,142.59 216,152.5C 228.435,143.698 240.602,134.531 252.5,125C 254.212,123.249 256.212,122.582 258.5,123C 259.496,159.761 259.83,196.594 259.5,233.5C 262.681,233.002 265.347,233.835 267.5,236C 266.833,236.667 266.167,237.333 265.5,238C 200.833,238.667 136.167,238.667 71.5,238C 70.1667,236.667 70.1667,235.333 71.5,234C 73.4727,233.505 75.4727,233.338 77.5,233.5C 77.3333,193.832 77.5,154.165 78,114.5C 78.5133,113.473 79.0133,112.473 79.5,111.5 Z"/></g>
<g><path style="opacity:0.982" fill="#006ea9" d="M 83.5,92.5 C 96.1667,92.5 108.833,92.5 121.5,92.5C 121.5,95.8333 121.5,99.1667 121.5,102.5C 108.833,102.5 96.1667,102.5 83.5,102.5C 83.5,99.1667 83.5,95.8333 83.5,92.5 Z"/></g>
<g><path style="opacity:0.977" fill="#006da9" d="M 83.5,117.5 C 96.1667,117.5 108.833,117.5 121.5,117.5C 121.5,155.833 121.5,194.167 121.5,232.5C 108.833,232.5 96.1667,232.5 83.5,232.5C 83.5,194.167 83.5,155.833 83.5,117.5 Z"/></g>
<g><path style="opacity:1" fill="#046da9" d="M 208.5,131.5 C 210.152,140.798 211.152,150.465 211.5,160.5C 212.086,160.709 212.586,161.043 213,161.5C 226.359,151.307 239.859,141.307 253.5,131.5C 254.5,165.16 254.833,198.827 254.5,232.5C 212.167,232.5 169.833,232.5 127.5,232.5C 127.333,208.164 127.5,183.831 128,159.5C 139.821,150.257 151.821,141.257 164,132.5C 164.168,141.851 164.668,151.184 165.5,160.5C 166.086,160.709 166.586,161.043 167,161.5C 181.015,151.637 194.848,141.637 208.5,131.5 Z"/></g>
<g><path style="opacity:1" fill="#f4f6f8" d="M 185.5,183.5 C 193.62,181.972 199.12,184.972 202,192.5C 202.667,198.5 202.667,204.5 202,210.5C 198.23,220.891 191.564,223.225 182,217.5C 177.333,207.167 177.333,196.833 182,186.5C 183.518,185.837 184.685,184.837 185.5,183.5 Z"/></g>
<g><path style="opacity:1" fill="#f2f4f7" d="M 216.5,183.5 C 223.899,181.753 229.399,184.087 233,190.5C 233.422,195.156 231.588,198.656 227.5,201C 233.169,203.815 235.002,208.315 233,214.5C 227.219,221.069 220.385,222.235 212.5,218C 208.011,211.57 208.677,205.737 214.5,200.5C 210.541,198.25 209.041,194.916 210,190.5C 211.694,187.642 213.861,185.309 216.5,183.5 Z"/></g>
<g><path style="opacity:1" fill="#f5f7f9" d="M 146.5,184.5 C 152.176,184.334 157.843,184.501 163.5,185C 169.169,187.815 171.002,192.315 169,198.5C 167.691,200.976 165.858,202.976 163.5,204.5C 167.311,209.479 171.311,214.312 175.5,219C 173.5,219.667 171.5,219.667 169.5,219C 165.833,214.667 162.167,210.333 158.5,206C 156.19,205.503 153.857,205.337 151.5,205.5C 151.5,210.167 151.5,214.833 151.5,219.5C 149.833,219.5 148.167,219.5 146.5,219.5C 146.5,207.833 146.5,196.167 146.5,184.5 Z"/></g>
<g><path style="opacity:1" fill="#1c70ab" d="M 151.5,188.5 C 154.518,188.335 157.518,188.502 160.5,189C 165.028,191.824 165.695,195.49 162.5,200C 158.974,201.337 155.308,201.837 151.5,201.5C 151.5,197.167 151.5,192.833 151.5,188.5 Z"/></g>
<g><path style="opacity:1" fill="#126eaa" d="M 187.5,187.5 C 192.997,186.82 196.164,189.154 197,194.5C 197.818,200.902 197.484,207.235 196,213.5C 189.864,218.409 185.864,217.076 184,209.5C 183.333,203.833 183.333,198.167 184,192.5C 184.997,190.677 186.164,189.01 187.5,187.5 Z"/></g>
<g><path style="opacity:1" fill="#2572ac" d="M 218.5,187.5 C 228.139,187.084 230.472,190.75 225.5,198.5C 224.833,198.833 224.167,199.167 223.5,199.5C 220.811,198.443 218.311,197.11 216,195.5C 214.837,192.029 215.67,189.362 218.5,187.5 Z"/></g>
<g><path style="opacity:1" fill="#156fab" d="M 217.5,202.5 C 221.332,202.944 224.832,204.278 228,206.5C 229.976,212.857 227.643,216.19 221,216.5C 215.144,215.131 213.144,211.464 215,205.5C 216.045,204.627 216.878,203.627 217.5,202.5 Z"/></g>
</svg>
