<?xml version="1.0" standalone="no"?>
<!DOCTYPE svg PUBLIC "-//W3C//DTD SVG 20010904//EN"
 "http://www.w3.org/TR/2001/REC-SVG-20010904/DTD/svg10.dtd">
<svg version="1.0" xmlns="http://www.w3.org/2000/svg"
 width="332.000000pt" height="332.000000pt" viewBox="0 0 332.000000 332.000000"
 preserveAspectRatio="xMidYMid meet">

<g transform="translate(0.000000,332.000000) scale(0.100000,-0.100000)"
fill="#000000" stroke="none">
<path d="M1495 3309 c-497 -52 -937 -317 -1216 -734 -324 -483 -365 -1123
-106 -1645 246 -494 698 -824 1252 -911 103 -16 367 -16 470 0 44 7 123 23
176 37 581 145 1048 612 1193 1193 39 153 50 245 50 411 0 166 -11 258 -50
411 -197 787 -962 1323 -1769 1238z m-217 -861 c16 -16 16 -190 0 -206 -17
-17 -469 -17 -486 0 -16 16 -16 190 0 206 17 17 469 17 486 0z m-7 -248 c18
-10 19 -23 19 -200 0 -105 2 -190 5 -190 3 0 85 60 183 133 212 160 199 152
217 137 12 -10 15 -41 15 -146 l0 -134 211 152 c171 123 214 150 227 141 14
-8 17 -33 20 -147 1 -75 5 -136 7 -136 3 0 93 66 201 147 160 120 199 145 212
136 15 -9 17 -60 20 -557 l2 -546 30 0 c34 0 53 -25 39 -52 -9 -17 -61 -18
-983 -18 -876 0 -975 2 -987 16 -19 23 1 48 40 52 l31 3 0 598 c0 451 3 600
12 609 16 16 450 17 479 2z"/>
<path d="M850 2345 l0 -45 185 0 185 0 0 45 0 45 -185 0 -185 0 0 -45z"/>
<path d="M850 1565 l0 -565 185 0 185 0 0 565 0 565 -185 0 -185 0 0 -565z"/>
<path d="M1886 1850 c-115 -83 -214 -149 -220 -147 -7 2 -13 57 -16 146 l-5
142 -182 -137 -183 -136 0 -364 0 -364 630 0 630 0 0 506 c0 404 -3 504 -12
497 -193 -149 -393 -293 -401 -290 -8 2 -13 50 -15 150 -1 81 -6 147 -10 147
-4 0 -101 -68 -216 -150z m93 -386 c36 -26 52 -77 52 -169 0 -134 -33 -185
-121 -185 -88 0 -120 49 -120 185 0 136 32 185 120 185 26 0 56 -7 69 -16z
m308 -4 c42 -25 56 -75 51 -173 -4 -84 -19 -115 -79 -155 -26 -18 -44 -22 -84
-20 -42 3 -50 6 -53 24 -3 20 1 22 47 21 57 -1 85 17 107 70 18 42 18 46 -5
33 -26 -14 -94 -13 -126 2 -71 32 -72 156 -1 199 40 24 102 24 143 -1z m-628
-5 c59 -30 64 -114 9 -160 l-30 -25 61 -69 c34 -38 61 -71 61 -75 0 -3 -15 -6
-32 -5 -28 0 -41 10 -88 69 -47 59 -60 69 -87 69 l-33 1 0 -70 c0 -68 -1 -70
-25 -70 l-25 0 0 175 0 175 80 0 c51 0 91 -5 109 -15z"/>
<path d="M1883 1430 c-27 -11 -43 -64 -43 -141 0 -72 16 -118 46 -129 35 -14
70 3 83 41 24 69 5 229 -28 229 -5 0 -15 2 -23 4 -7 3 -23 1 -35 -4z"/>
<path d="M2183 1430 c-25 -10 -36 -42 -31 -86 4 -39 45 -59 96 -47 31 7 38 14
40 37 5 39 -15 81 -44 95 -29 13 -31 13 -61 1z"/>
<path d="M1520 1365 c0 -65 0 -65 29 -65 48 0 91 20 97 45 14 55 -18 85 -88
85 l-38 0 0 -65z"/>
</g>
</svg>
